# xmcd CD database file
#
# Track frame offsets:
#	150
#	22272
#	43232
#	67851
#
# Disc length: 1206 seconds
#
# Revision: 0
# Processed by: cddbd v1.5.1PL0 Copyright (c) Steve Scherf et al.
# Submitted via: CDex 1.51
#
DISCID=3204b404
DTITLE=Jolly Jelly Fish - ジョリー・ジェリー・フィッシュ
DYEAR=2001
DGENRE=JPop
TTITLE0=ホタル
TTITLE1=ペイズリー
TTITLE2=キンモクセイ
TTITLE3=お引っ越し
EXTD=YEAR: 2001
EXTT0=
EXTT1=
EXTT2=
EXTT3=
PLAYORDER=
